# xmcd
#
# Track frame offsets: 
#        150
#        17502
#        30060
#        44557
#        63225
#        76380
#        92305
#        113072
#        127745
#        141870
#        156372
#
# Disc length: 2299 seconds
#
# Revision: 13
# Processed by: cddbd v1.5.2PL0 Copyright (c) Steve Scherf et al.
# Submitted via: ExactAudioCopy v0.95b4
#
DISCID=7808f90b
DTITLE=Trace Adkins - Big Time
DYEAR=1997
DGENRE=Country
TTITLE0=Big Time
TTITLE1=Took Her to the Moon
TTITLE2=The Rest of Mine
TTITLE3=Snowball in El Paso
TTITLE4=See Jane Run
TTITLE5=Twenty-Four, Seven
TTITLE6=Hold You Now
TTITLE7=Nothin' But Taillights
TTITLE8=Lonely Won't Leave Me Alone
TTITLE9=Out of My Dreams
TTITLE10=Wayfaring Stranger
EXTD=
EXTT0=
EXTT1=
EXTT2=
EXTT3=
EXTT4=
EXTT5=
EXTT6=
EXTT7=
EXTT8=
EXTT9=
EXTT10=
PLAYORDER=
